<svg width="90" height="90" viewBox="0 0 90 90" fill="none" xmlns="http://www.w3.org/2000/svg">
<g clip-path="url(#clip0)">
<path d="M87.3593 84.0024L63.3691 42.4499C62.955 41.7328 62.038 41.4871 61.3209 41.9011L54.827 45.6496C54.11 46.0636 53.8643 46.9807 54.2783 47.6978L55.3278 49.5165H40.9577C54.2235 44.8055 61.1586 30.2324 56.4477 16.9665C51.7366 3.70069 37.1635 -3.23435 23.8977 1.47653C10.6318 6.18761 3.6968 20.7607 8.40788 34.0265C10.9761 41.2585 16.6659 46.9483 23.8979 49.5165H9.93688C9.10884 49.5165 8.43749 50.1879 8.43749 51.0159V57.0135H6.9381C6.11007 57.0135 5.43872 57.6848 5.43872 58.5129V64.5104H3.93933C3.11129 64.5104 2.43994 65.1818 2.43994 66.0098V73.5067C2.43994 74.3348 3.11129 75.0061 3.93933 75.0061H5.43872V88.5006C5.43872 89.3286 6.11007 90 6.9381 90H54.9185C55.7465 90 56.4179 89.3286 56.4179 88.5006V73.5067C56.4179 72.6787 55.7465 72.0073 54.9185 72.0073H53.4191V67.5092H54.9185C55.7465 67.5092 56.4179 66.8378 56.4179 66.0098V60.0122H57.9173C58.7453 60.0122 59.4167 59.3409 59.4167 58.5129V56.5966L78.2685 89.2503C78.4685 89.5942 78.7961 89.8454 79.1801 89.949C79.5638 90.0515 79.9725 89.9976 80.3166 89.7991L86.8105 86.0506C87.5278 85.6366 87.7733 84.7195 87.3593 84.0024ZM9.93688 25.5263C9.93688 13.105 20.0064 3.03552 32.4277 3.03552C44.849 3.03552 54.9185 13.105 54.9185 25.5263C54.9185 37.9476 44.849 48.0171 32.4277 48.0171C20.0122 48.0031 9.95094 37.9418 9.93688 25.5263ZM5.43872 72.0073V67.5092H50.4203V72.0073H5.43872ZM53.4191 87.0012H8.43749V82.5031H53.4191V87.0012ZM53.4191 79.5043H8.43749V75.0061H53.4191V79.5043ZM53.4191 64.5104H8.43749V60.0122H53.4191V64.5104ZM56.4179 57.0135H11.4363V52.5153H56.4179V57.0135ZM80.1082 86.4524L57.6174 47.4969L61.5158 45.2478L84.0066 84.2034L80.1082 86.4524Z" fill="#0D9CEE"/>
<path d="M39.7823 30.032C39.0721 26.5352 35.9959 24.0234 32.4278 24.027C29.9435 24.027 27.9296 22.0131 27.9296 19.5288C27.9296 17.0445 29.9435 15.0306 32.4278 15.0306C34.9121 15.0306 36.9259 17.0445 36.9259 19.5288H39.9247C39.9202 15.9676 37.4153 12.8991 33.9272 12.1818V9.03308H30.9284V12.1818C26.8707 13.0057 24.2494 16.963 25.0733 21.0207C25.7834 24.5174 28.8596 27.0293 32.4278 27.0257C34.9121 27.0257 36.9259 29.0396 36.9259 31.5239C36.9259 34.0082 34.9121 36.0221 32.4278 36.0221C29.9435 36.0221 27.9296 34.0082 27.9296 31.5239H24.9308C24.9353 35.0851 27.4403 38.1536 30.9284 38.8709V42.0196H33.9272V38.8709C37.9847 38.047 40.6062 34.0897 39.7823 30.032Z" fill="#0D9CEE"/>
</g>
<defs>
<clipPath id="clip0">
<rect width="90" height="90" fill="white"/>
</clipPath>
</defs>
</svg>
