<svg width="290" height="290" viewBox="0 0 290 290" fill="none" xmlns="http://www.w3.org/2000/svg">
<path d="M289.998 144.971C289.948 115.918 281.176 87.5486 264.815 63.5342C248.455 39.5198 225.261 20.9658 198.233 10.2734C198.092 10.1887 198.001 10.0527 197.851 9.97785C197.356 9.77422 196.836 9.63606 196.305 9.56689C171.042 -0.177399 143.528 -2.53796 116.973 2.76079L116.786 2.78903C79.8256 10.1567 47.1756 31.5901 25.7279 62.5649C25.4826 62.8383 25.262 63.133 25.0688 63.4453C22.0735 67.8444 19.3225 72.4048 16.8281 77.1058C16.3072 77.7864 15.9309 78.5663 15.7225 79.3976C13.6097 83.5379 11.6954 87.7856 9.97964 92.1408C9.46456 92.931 9.13533 93.8275 9.01669 94.763C1.65409 114.644 -1.25521 135.897 0.493947 157.024C2.24311 178.151 8.60813 198.638 19.1402 217.038C29.6723 235.439 44.1149 251.307 61.4497 263.522C78.7845 275.737 98.5894 284.003 119.468 287.736C140.346 291.468 161.79 290.578 182.286 285.126C202.783 279.675 221.833 269.796 238.094 256.185C254.355 242.575 267.431 225.564 276.4 206.354C285.368 187.143 290.011 166.199 290 145L289.999 144.983L289.998 144.971ZM276.752 132.529C270.369 132.923 265.536 138.939 261.214 144.397C257.444 149.166 253.419 151.801 250.865 151.551C248.221 151.276 245.083 147.865 242.266 142.197C237.603 132.029 235.708 120.812 236.772 109.678C237.263 101.424 236.625 93.1412 234.875 85.0596L233.413 79.215C229.249 62.7396 227.68 55.7788 230.744 48.8957C231.258 47.738 231.596 46.5098 231.747 45.2521C257.411 67.4837 273.528 98.7374 276.753 132.529H276.752ZM213.382 31.8753C209.749 31.5735 206.242 30.4021 203.157 28.4599C202.098 27.5244 201.254 26.3704 200.684 25.0775C205.037 27.1107 209.276 29.38 213.382 31.8753V31.8753ZM114.244 16.3397C118.193 23.5487 122.981 30.2651 128.51 36.3486C129.98 37.79 131.59 39.0823 133.315 40.2069C132.485 40.2973 131.664 40.3834 130.859 40.4655C121.02 41.4793 110.844 42.53 104.898 52.438C100.514 60.3106 96.5849 68.4273 93.1288 76.7484C88.9645 74.4691 84.1963 73.5342 79.4791 74.0721C63.0291 76.1242 53.2063 84.7312 53.8467 96.5272C54.3185 103.176 57.0782 109.457 61.6571 114.303C58.4237 112.501 55.4439 110.277 52.7954 107.691C44.4954 99.0171 39.0984 78.3535 37.1416 68.3331C55.7213 42.2684 83.1071 23.801 114.244 16.3397V16.3397ZM144.928 277.392C124.824 277.471 104.968 272.958 86.8755 264.196C68.7833 255.435 52.9338 242.656 40.5372 226.837C28.1406 211.018 19.5249 192.576 15.3481 172.921C11.1712 153.265 11.5437 132.916 16.437 113.426C17.1431 114.259 18.016 114.936 18.9994 115.412C20.1862 116.01 21.4973 116.321 22.8267 116.319C24.504 116.249 26.1441 115.803 27.6254 115.014C29.1068 114.224 30.3915 113.112 31.3843 111.759C32.9709 110.084 33.9338 107.915 34.1118 105.615C34.2897 103.315 33.6718 101.024 32.3616 99.1254C31.3955 96.5592 30.6677 93.9096 30.1873 91.2101C32.9158 100.442 37.5074 109.018 43.679 116.409C49.1866 121.573 55.4583 125.856 62.273 129.108C73.3521 135.158 84.8173 141.413 90.1475 155.659C94.0192 167.462 99.8283 178.54 107.337 188.437C109.234 191.006 111.222 193.699 113.464 197.266C117.784 204.124 116.79 218.338 115.985 229.756C115.299 236.263 115.192 242.817 115.665 249.342C116.104 253.277 117.606 257.019 120.011 260.166C122.415 263.312 125.632 265.746 129.314 267.205C131.012 267.852 132.811 268.192 134.628 268.21C136.292 268.28 137.947 267.936 139.445 267.209C140.943 266.482 142.237 265.394 143.211 264.044C144.185 262.693 144.808 261.122 145.024 259.472C145.241 257.822 145.044 256.143 144.451 254.588C142.923 248.924 145.231 244.795 153.584 238.236C155.276 236.91 157.14 235.666 159.021 234.406C166.437 229.432 175.676 223.242 175.274 211.816C178.151 205.544 182.076 199.808 186.879 194.852C194.533 185.609 201.145 177.626 201.342 170.287C201.585 166.59 200.464 162.932 198.191 160.005C195.917 157.078 192.65 155.085 189.006 154.403C187.48 153.998 186.033 153.337 184.727 152.45C175.985 144.833 166.656 137.917 156.828 131.764C155.234 131.049 152.335 129.937 148.861 128.615C142.15 126.217 135.57 123.465 129.15 120.369C120.683 115.842 106.236 117.053 94.6069 118.034L89.7367 118.424C88.9975 118.477 88.4144 118.49 87.9706 118.49C87.5878 118.458 87.2028 118.462 86.8208 118.502C86.6648 118.309 86.5415 118.091 86.3937 117.874C84.633 115.014 82.0107 112.785 78.9035 111.508C75.6527 110.192 72.7974 108.058 70.6146 105.314C68.4318 102.57 66.9957 99.3083 66.4455 95.8459C66.0677 88.811 78.5349 86.8943 81.0398 86.5823C82.9162 86.5414 84.7807 86.8902 86.5153 87.6066C88.2499 88.3229 89.8168 89.3914 91.117 90.7442C91.8283 91.5496 92.7336 92.1601 93.7471 92.5178C94.7606 92.8755 95.8487 92.9685 96.9082 92.788C97.9678 92.6075 98.9636 92.1595 99.8014 91.4865C100.639 90.8135 101.291 89.9378 101.695 88.9423C105.812 78.6867 110.492 68.6663 115.715 58.9269C118.302 54.6173 122.876 53.9647 132.157 53.0084C135.869 52.6225 139.86 52.2039 144.082 51.3912C147.572 50.7222 154.077 49.4703 154.94 43.7201C155.769 38.1587 150.858 35.5565 146.111 33.0404C142.981 31.5644 140.062 29.679 137.43 27.4338C133.628 23.2921 130.283 18.7542 127.452 13.8981C147.673 10.9924 168.296 13.0099 187.57 19.7792C187.224 23.1283 187.688 26.5115 188.923 29.6441C190.158 32.7767 192.127 35.5672 194.665 37.7811C200.148 41.8129 206.665 44.2043 213.456 44.6764C214.967 44.9227 216.963 45.2428 218.466 45.5959C214.548 56.0661 217.102 66.1589 221.184 82.3015L222.638 88.0887C224.1 95.1067 224.611 102.289 224.157 109.444C223.043 122.605 225.39 135.828 230.966 147.803C232.396 151.891 234.86 155.539 238.118 158.394C241.376 161.248 245.318 163.212 249.56 164.094C250.143 164.151 250.718 164.184 251.301 164.184C255.303 163.819 259.169 162.549 262.607 160.469C266.045 158.389 268.964 155.554 271.143 152.179C272.89 149.828 274.833 147.628 276.95 145.604C277.052 145.767 277.198 146.109 277.317 146.332C276.937 181.192 262.827 214.498 238.045 239.031C213.264 263.564 179.807 277.346 144.928 277.392V277.392ZM131.573 254.12C129.667 252.534 128.451 250.271 128.182 247.807C127.839 242.083 127.968 236.341 128.568 230.638C129.545 216.696 130.653 200.894 124.141 190.551C121.702 186.676 119.55 183.754 117.497 180.959C110.688 171.994 105.436 161.949 101.958 151.243C99.0832 143.487 94.3316 136.564 88.1276 131.091C88.9489 131.078 89.7373 131.066 90.6326 131L95.6588 130.598C104.803 129.065 114.162 129.367 123.188 131.485C130.08 134.849 137.154 137.827 144.378 140.403C147.548 141.606 150.192 142.607 151.638 143.256C160.316 148.919 168.6 155.164 176.433 161.947C178.932 163.957 181.808 165.446 184.892 166.327C188.793 167.669 188.793 167.669 188.727 169.947C185.846 176.178 181.937 181.881 177.164 186.816C169.238 196.391 162.389 204.662 162.66 212.255C162.807 216.38 158.726 219.421 151.991 223.936C149.847 225.372 147.72 226.809 145.799 228.319C141.368 230.991 137.721 234.783 135.223 239.312C132.726 243.842 131.467 248.949 131.573 254.12V254.12Z" fill="#0088D6"/>
</svg>
