<svg width="93" height="101" viewBox="0 0 93 101" fill="none" xmlns="http://www.w3.org/2000/svg">
<path d="M31.6747 76.8061C31.6747 76.8061 47.7375 78.1179 30.5786 76.7498C13.4198 75.3818 0 59.6097 0 28.6833C0 16.5746 7.11222 3.08443 17.9052 3.08443V9.25336C11.7362 9.25336 6.35116 18.6957 6.35116 28.6833C6.35116 55.6396 18.0425 69.7944 31.6787 70.6171C45.3149 69.7944 57.214 55.6382 57.214 28.6833C57.214 19.0776 51.8276 10.3306 45.6573 10.3306V4.16306C54.9107 4.16306 63.0158 15.3915 63.0158 28.6833C63.0158 59.6111 50.1761 75.3818 31.6733 76.7512V76.8061H31.6747Z" fill="#0088D6"/>
<path d="M22.5321 9.25205C22.5321 10.9551 21.1506 12.3365 19.449 12.3365H17.9067C16.2037 12.3365 14.8223 10.9564 14.8223 9.25205V3.08312C14.8223 1.3801 16.2024 0 17.9054 0H19.4476C21.1506 0 22.5307 1.3801 22.5307 3.08312V9.25205H22.5321Z" fill="#0088D6"/>
<path d="M48.744 9.25205C48.744 10.9551 47.3626 12.3365 45.6595 12.3365H44.12C42.417 12.3365 41.0342 10.9564 41.0342 9.25205V3.08312C41.0342 1.3801 42.4156 0 44.1186 0H45.6582C47.3612 0 48.7427 1.3801 48.7427 3.08312V9.25205H48.744Z" fill="#0088D6"/>
<path d="M56.2011 101C39.4309 101 27.7188 89.8198 27.7188 74.4002H33.8877C33.8877 86.7367 42.853 94.8284 56.2011 94.8284C66.3898 94.8284 78.0899 91.5121 78.0899 64.6336V43.5582H84.2588V64.6336C84.2588 89.1901 75.0804 101 56.2011 101Z" fill="#0088D6"/>
<path d="M80.7513 46.5949C74.0732 46.5949 68.6372 41.1777 68.6372 34.517C68.6372 27.8577 74.0732 22.4391 80.7513 22.4391C87.4321 22.4391 92.8654 27.8577 92.8654 34.517C92.8654 41.1763 87.4334 46.5949 80.7513 46.5949ZM80.7513 28.608C77.4752 28.608 74.8048 31.2583 74.8048 34.517C74.8048 37.7757 77.4739 40.4273 80.7513 40.4273C84.0301 40.4273 86.6978 37.7757 86.6978 34.517C86.6978 31.2583 84.0314 28.608 80.7513 28.608Z" fill="#0088D6"/>
</svg>
