<svg width="90" height="90" viewBox="0 0 90 90" fill="none" xmlns="http://www.w3.org/2000/svg">
<path d="M45.0159 4.81307e-07C27.0103 -0.00262452 10.7372 10.7323 3.65024 27.288L3.08935 27.474L3.30681 28.1265C-6.02425 51.1451 5.06763 77.3713 28.0815 86.7043C33.4565 88.8842 39.2024 90.0032 45.0026 90C69.8502 90.0037 89.9962 69.8595 90 45.0067C90.0037 20.154 69.8637 0.00356298 45.0159 4.81307e-07ZM80.306 67.6882L77.9957 65.379V60C77.9984 59.7679 77.947 59.5384 77.8458 59.3295L71.997 47.646V42C71.997 41.4986 71.7467 41.0302 71.3296 40.752L66.8306 37.752C66.478 37.5165 66.0421 37.4413 65.6308 37.545L60.121 38.922L50.8664 34.95L49.5932 26.028L53.1219 22.5H60.6968L63.2463 26.3325C63.4765 26.6771 63.8393 26.9113 64.2481 26.979L73.2462 28.479C73.4873 28.5195 73.7344 28.4998 73.9661 28.422L82.2534 25.659C89.2042 39.0006 88.4608 55.047 80.306 67.6882ZM74.1206 14.781L71.6821 16.407L64.884 15.0465L60.4734 13.578C60.2035 13.4863 59.9129 13.4747 59.6366 13.545L54.0607 14.9385L51.6162 14.124L53.4279 10.5H58.4998C58.7324 10.5002 58.9619 10.4464 59.1702 10.3425L64.3591 7.7475C67.9325 9.61312 71.2198 11.9816 74.1206 14.781ZM28.5765 6.3495L32.1758 8.7495C32.3528 8.86725 32.5526 8.946 32.7622 8.9805L40.0297 10.1925L39.3203 12.315L35.5336 13.5795C35.1945 13.6924 34.9067 13.9226 34.7223 14.229L30.4152 21.408L23.4971 25.56L13.2992 27.0165C12.5601 27.1209 12.0104 27.7534 12.0095 28.5V33C12.0095 33.3979 12.1677 33.7792 12.4489 34.0605L15.0089 36.621V39.198L8.77017 35.037L6.50714 28.2465C10.8127 18.4065 18.7043 10.5765 28.5765 6.3495ZM24.3069 55.53L17.5283 54.1725L15.0089 49.146V45.621L20.5967 40.032L22.6648 44.1705C22.9188 44.679 23.4386 45.0002 24.007 45H33.656L37.7186 51.7725C37.9897 52.2238 38.4775 52.4998 39.0039 52.5H43.173L42.1232 57.7605L36.4454 63.4395C36.1637 63.7206 36.0051 64.1019 36.0045 64.5V68.25L30.6056 72.3C30.2281 72.5833 30.0057 73.0279 30.0057 73.5V78.918L28.1401 78.3L25.5067 71.712V57C25.5069 56.2871 25.0052 55.6725 24.3069 55.53ZM19.7989 78.5889C5.65888 67.9785 -0.320936 49.6455 4.84249 32.736L6.08873 36.474C6.19371 36.7903 6.40104 37.0627 6.67811 37.248L14.154 42.2325L12.4489 43.9395C12.1677 44.2207 12.0095 44.6021 12.0095 45V49.5C12.0093 49.7327 12.0631 49.9622 12.167 50.1705L15.1663 56.1705C15.374 56.5849 15.7615 56.88 16.2161 56.97L22.5148 58.2285V72C22.5146 72.1905 22.5508 72.3795 22.6213 72.5565L25.6207 80.0565C25.7849 80.4662 26.1212 80.7829 26.54 80.922L31.039 82.422C31.1894 82.473 31.3468 82.4992 31.5054 82.5C32.3336 82.5 33.0051 81.8284 33.0051 81V74.25L38.404 70.2C38.7815 69.9167 39.0039 69.4721 39.0039 69V65.121L44.5632 59.5605C44.7722 59.3511 44.9147 59.0842 44.9726 58.794L46.4723 51.294C46.6347 50.4816 46.1079 49.6914 45.2956 49.5291C45.1991 49.5097 45.101 49.5 45.0026 49.5H39.8527L35.79 42.7275C35.519 42.2762 35.0312 42.0002 34.5048 42H24.9338L22.3573 36.8295C22.1416 36.3979 21.7314 36.0964 21.2551 36.0195C20.7789 35.9372 20.2928 36.0943 19.9548 36.4395L18.0082 38.379V36C18.0082 35.6021 17.85 35.2207 17.5688 34.9395L15.0089 32.379V29.8005L24.22 28.485C24.4177 28.4563 24.608 28.3884 24.7793 28.2855L32.2778 23.7855C32.4881 23.6591 32.6643 23.4829 32.7907 23.2725L37.0048 16.248L40.9775 14.922C41.4261 14.7748 41.7781 14.4229 41.9253 13.974L43.4249 9.474C43.6848 8.68744 43.2579 7.839 42.4715 7.57912C42.399 7.55512 42.3246 7.53675 42.2492 7.524L33.569 6.0765L32.0438 5.0595C41.4812 1.98713 51.7027 2.36738 60.8858 6.132L58.1459 7.5H52.5011C51.9299 7.49681 51.4067 7.81856 51.1513 8.3295L48.152 14.3295C47.7825 15.0709 48.0837 15.9716 48.8249 16.3412C48.8881 16.3727 48.9534 16.3997 49.0203 16.422L53.5193 17.922C53.7893 18.0137 54.0799 18.0253 54.3562 17.955L59.932 16.5615L64.0172 17.922C64.0756 17.943 64.1358 17.9591 64.1971 17.97L71.6956 19.47C72.0855 19.5495 72.4911 19.4696 72.8218 19.248L76.2351 16.971C77.9149 18.8424 79.4246 20.8599 80.7462 22.9995L73.3677 25.4595L65.3789 24.1275L62.7394 20.1675C62.4627 19.7526 61.9978 19.5024 61.4992 19.5H52.5011C52.1033 19.5 51.722 19.6582 51.4408 19.9395L46.9417 24.4395C46.6077 24.7734 46.4504 25.2454 46.5173 25.713L48.017 36.213C48.0925 36.7322 48.4337 37.1741 48.9168 37.3785L59.4146 41.8785C59.7153 42.0088 60.0509 42.0356 60.3684 41.955L65.7238 40.6155L68.9976 42.8025V48C68.995 48.2321 69.0464 48.4616 69.1476 48.6705L74.9964 60.354V66C74.9964 66.3979 75.1546 66.7792 75.4358 67.0605L78.5731 70.2C64.6592 88.7499 38.3449 92.5059 19.7989 78.5889Z" fill="#0D9CEE"/>
</svg>
