<svg width="90" height="90" viewBox="0 0 90 90" fill="none" xmlns="http://www.w3.org/2000/svg">
<g clip-path="url(#clip0)">
<path d="M40.5 3H39V0H34.5C32.0147 0 30 2.01469 30 4.5C30 6.98531 32.0147 9 34.5 9H39V6H40.5C44.64 6.00488 47.9951 9.36 48 13.5V34.5C48 46.9264 37.9264 57 25.5 57C13.0736 57 3 46.9264 3 34.5V13.5C3.00488 9.36 6.36 6.00488 10.5 6H12V9H16.5C18.9853 9 21 6.98531 21 4.5C21 2.01469 18.9853 0 16.5 0H12V3H10.5C4.70381 3.00656 0.0065625 7.70381 0 13.5V34.5C0 48.5833 11.4167 60 25.5 60C39.5833 60 51 48.5833 51 34.5V13.5C50.9934 7.70381 46.2962 3.00656 40.5 3ZM36 6H34.5C33.6716 6 33 5.32838 33 4.5C33 3.67163 33.6716 3 34.5 3H36V6ZM15 3H16.5C17.3284 3 18 3.67163 18 4.5C18 5.32838 17.3284 6 16.5 6H15V3Z" fill="#FFF"/>
<path d="M73.5 30V69C73.5 71.4853 71.4853 73.5 69 73.5C66.5147 73.5 64.5 71.4853 64.5 69V60.75C64.5 56.1936 60.8064 52.5 56.25 52.5C51.6936 52.5 48 56.1936 48 60.75V76.5C48 82.299 43.299 87 37.5 87C31.701 87 27 82.299 27 76.5V60H24V76.5C24 83.9558 30.0443 90 37.5 90C44.9559 90 51 83.9558 51 76.5V60.75C51 57.8505 53.3505 55.5 56.25 55.5C59.1495 55.5 61.5 57.8505 61.5 60.75V69C61.5 73.1421 64.8579 76.5 69 76.5C73.1421 76.5 76.5 73.1421 76.5 69V30H73.5Z" fill="#FFF"/>
<path d="M75.0749 9.45001C68.9031 9.45001 63.8999 14.4532 63.8999 20.625C63.8999 26.7968 68.9031 31.8 75.0749 31.8C81.2439 31.7932 86.2432 26.794 86.2499 20.625C86.2499 14.4532 81.2467 9.45001 75.0749 9.45001ZM75.0749 29.565C70.1375 29.565 66.1349 25.5624 66.1349 20.625C66.1349 15.6876 70.1375 11.685 75.0749 11.685C80.0123 11.685 84.0149 15.6876 84.0149 20.625C84.0093 25.5602 80.0101 29.5594 75.0749 29.565Z" fill="#FFF"/>
<path d="M75.075 16.155C72.6063 16.155 70.605 18.1563 70.605 20.625C70.605 23.0937 72.6063 25.095 75.075 25.095C77.5437 25.095 79.545 23.0937 79.545 20.625C79.545 18.1563 77.5437 16.155 75.075 16.155ZM75.075 22.86C73.8406 22.86 72.84 21.8594 72.84 20.625C72.84 19.3906 73.8406 18.39 75.075 18.39C76.3094 18.39 77.31 19.3906 77.31 20.625C77.31 21.8594 76.3094 22.86 75.075 22.86Z" fill="#FFF"/>
</g>
<defs>
<clipPath id="clip0">
<rect width="90" height="90" fill="white"/>
</clipPath>
</defs>
</svg>
