<svg width="454" height="512" viewBox="0 0 454 512" fill="none" xmlns="http://www.w3.org/2000/svg">
<path d="M433.323 440.044C429.815 440.044 426.343 440.98 423.295 442.748C390.515 461.78 353.103 471.952 315.115 471.952C223.215 471.952 142.103 412.088 111.551 328.088H296.791C307.827 328.088 316.803 319.12 316.803 308.088C316.803 297.048 307.827 288.088 296.791 288.088H101.583C99.9869 276.088 99.171 266.62 99.171 256.084C99.171 245.552 99.9829 236.088 101.583 224.088H296.787C307.823 224.088 316.799 215.12 316.799 204.088C316.799 193.048 307.823 184.088 296.787 184.088H111.547C142.103 96.088 223.215 40.02 315.115 40.02C353.103 40.02 390.515 50.048 423.303 69.072C426.343 70.836 429.815 71.76 433.323 71.76C440.435 71.76 447.079 67.928 450.651 61.78C456.187 52.24 452.927 39.964 443.383 34.416C404.495 11.86 360.147 0 315.119 0C201.911 0.004 101.367 76.088 69.531 184.088H20.635C9.60695 184.088 0.626953 193.048 0.626953 204.088C0.626953 215.12 9.60695 224.088 20.635 224.088H61.191C59.835 236.088 59.155 245.584 59.155 256.084C59.155 266.588 59.835 276.088 61.191 288.088H20.635C9.60695 288.088 0.626953 297.048 0.626953 308.088C0.626953 319.12 9.60695 328.088 20.635 328.088H69.531C101.367 436.088 201.915 511.976 315.115 511.976C360.147 511.976 404.495 499.996 443.379 477.424C452.927 471.884 456.183 459.592 450.639 450.048C447.079 443.896 440.435 440.044 433.323 440.044Z" fill="#0088D6"/>
</svg>
