<svg width="117" height="117" viewBox="0 0 117 117" fill="none" xmlns="http://www.w3.org/2000/svg">
<path d="M58.5001 0C46.9299 -1.80856e-05 35.6195 3.43093 25.9992 9.85898C16.3789 16.287 8.88084 25.4235 4.4531 36.1129C0.0253593 46.8024 -1.13315 58.5648 1.12408 69.9127C3.3813 81.2606 8.95288 91.6843 17.1342 99.8657C25.3156 108.047 35.7393 113.619 47.0872 115.876C58.4351 118.133 70.1975 116.975 80.887 112.547C91.5764 108.119 100.713 100.621 107.141 91.0008C113.569 81.3806 117 70.0702 117 58.5C116.982 42.9903 110.813 28.121 99.8461 17.154C88.8791 6.18701 74.0098 0.017885 58.5001 0V0ZM58.5001 112.428C47.8342 112.428 37.4078 109.265 28.5394 103.339C19.671 97.4137 12.7589 88.9914 8.67719 79.1373C4.5955 69.2833 3.52754 58.4402 5.60835 47.9792C7.68916 37.5183 12.8253 27.9092 20.3672 20.3673C27.9092 12.8253 37.5182 7.68917 47.9792 5.60834C58.4402 3.52752 69.2833 4.59546 79.1373 8.67713C88.9913 12.7588 97.4137 19.6709 103.339 28.5393C109.265 37.4077 112.428 47.8341 112.428 58.5C112.412 72.7976 106.725 86.5051 96.6152 96.6151C86.5053 106.725 72.7978 112.412 58.5001 112.428V112.428Z" fill="#0088D6"/>
<path d="M72.8204 62.508H59.3106V41.7701C59.3106 41.2851 59.1191 40.82 58.7783 40.477C58.4375 40.1341 57.9752 39.9414 57.4932 39.9414C57.0112 39.9414 56.5489 40.1341 56.2081 40.477C55.8673 40.82 55.6758 41.2851 55.6758 41.7701V64.3368C55.6756 64.5769 55.7226 64.8148 55.8138 65.0368C55.9051 65.2587 56.039 65.4603 56.2078 65.6302C56.3766 65.8 56.577 65.9347 56.7975 66.0266C57.0181 66.1184 57.2545 66.1657 57.4932 66.1655H72.8204C73.3025 66.1655 73.7647 65.9728 74.1055 65.6299C74.4464 65.2869 74.6378 64.8218 74.6378 64.3368C74.6378 63.8517 74.4464 63.3866 74.1055 63.0436C73.7647 62.7007 73.3025 62.508 72.8204 62.508H72.8204Z" fill="#0088D6"/>
<path d="M58.0965 24.2069C58.4144 24.2071 58.7293 24.1446 59.023 24.023C59.3168 23.9015 59.5837 23.7232 59.8086 23.4984C60.0334 23.2736 60.2117 23.0067 60.3333 22.713C60.4549 22.4193 60.5173 22.1045 60.5172 21.7866V16.1376C60.5172 15.4956 60.2621 14.88 59.8081 14.4261C59.3542 13.9722 58.7385 13.7172 58.0965 13.7172C57.4545 13.7172 56.8388 13.9722 56.3848 14.4261C55.9308 14.88 55.6758 15.4956 55.6758 16.1376V21.7866C55.6756 22.1045 55.7381 22.4193 55.8597 22.713C55.9812 23.0067 56.1595 23.2736 56.3844 23.4984C56.6092 23.7232 56.8761 23.9015 57.1699 24.023C57.4637 24.1446 57.7785 24.2071 58.0965 24.2069Z" fill="#0088D6"/>
<path d="M86.6415 26.919L82.6297 30.9321C82.4001 31.157 82.2174 31.4252 82.0921 31.7212C81.9669 32.0172 81.9016 32.335 81.8999 32.6564C81.8983 32.9777 81.9604 33.2962 82.0827 33.5934C82.2049 33.8906 82.3849 34.1606 82.6122 34.3879C82.8395 34.6151 83.1096 34.795 83.4069 34.9173C83.7042 35.0395 84.0228 35.1016 84.3442 35.1C84.6656 35.0983 84.9836 35.033 85.2796 34.9078C85.5756 34.7826 85.8439 34.5999 86.0689 34.3704L90.0807 30.3573C90.5292 29.8998 90.779 29.2838 90.7757 28.6432C90.7725 28.0026 90.5165 27.3892 90.0634 26.9363C89.6104 26.4833 88.9968 26.2274 88.356 26.2242C87.7153 26.2209 87.0991 26.4706 86.6415 26.919H86.6415Z" fill="#0088D6"/>
<path d="M100.862 56.0793H95.2143C94.5723 56.0793 93.9565 56.3343 93.5025 56.7883C93.0485 57.2423 92.7935 57.858 92.7935 58.5C92.7935 59.142 93.0485 59.7577 93.5025 60.2117C93.9565 60.6657 94.5723 60.9207 95.2143 60.9207H100.862C101.504 60.9207 102.12 60.6657 102.574 60.2117C103.028 59.7577 103.283 59.142 103.283 58.5C103.283 57.858 103.028 57.2423 102.574 56.7883C102.12 56.3343 101.504 56.0793 100.862 56.0793Z" fill="#0088D6"/>
<path d="M86.0504 83.001C85.591 82.5509 84.9724 82.3002 84.3292 82.3035C83.6859 82.3067 83.0699 82.5636 82.615 83.0184C82.1602 83.4731 81.9032 84.089 81.8999 84.7321C81.8967 85.3752 82.1474 85.9935 82.5977 86.4529L86.6252 90.4817C87.0847 90.9318 87.7032 91.1825 88.3465 91.1793C88.9898 91.176 89.6058 90.9191 90.0606 90.4644C90.5155 90.0096 90.7725 89.3938 90.7757 88.7507C90.779 88.1076 90.5282 87.4892 90.078 87.0299L86.0504 83.001Z" fill="#0088D6"/>
<path d="M58.0965 93.1965C57.7785 93.1964 57.4637 93.2588 57.1699 93.3804C56.8761 93.502 56.6092 93.6803 56.3844 93.905C56.1595 94.1298 55.9812 94.3967 55.8597 94.6904C55.7381 94.9842 55.6756 95.299 55.6758 95.6169V101.266C55.6758 101.908 55.9308 102.523 56.3848 102.977C56.8388 103.431 57.4545 103.686 58.0965 103.686C58.7385 103.686 59.3542 103.431 59.8081 102.977C60.2621 102.523 60.5172 101.908 60.5172 101.266V95.6169C60.5173 95.299 60.4549 94.9842 60.3333 94.6904C60.2117 94.3967 60.0334 94.1298 59.8086 93.905C59.5837 93.6803 59.3168 93.502 59.023 93.3804C58.7293 93.2588 58.4144 93.1964 58.0965 93.1965V93.1965Z" fill="#0088D6"/>
<path d="M30.563 82.9983L26.5499 87.0114C26.3204 87.2363 26.1377 87.5045 26.0125 87.8005C25.8873 88.0965 25.822 88.4143 25.8203 88.7357C25.8187 89.057 25.8808 89.3755 26.003 89.6727C26.1253 89.9699 26.3052 90.2399 26.5324 90.4672C26.7597 90.6944 27.0297 90.8744 27.3269 90.9966C27.6241 91.1188 27.9426 91.1809 28.264 91.1793C28.5853 91.1777 28.9032 91.1123 29.1991 90.9871C29.4951 90.8619 29.7633 90.6792 29.9882 90.4497L34.0013 86.4366C34.4497 85.9791 34.6994 85.3631 34.6961 84.7226C34.6929 84.082 34.437 83.4685 33.984 83.0156C33.5311 82.5626 32.9177 82.3067 32.2771 82.3035C31.6365 82.3002 31.0205 82.5499 30.563 82.9983V82.9983Z" fill="#0088D6"/>
<path d="M21.3823 56.0793H15.7344C15.0923 56.0793 14.4765 56.3343 14.0225 56.7883C13.5685 57.2423 13.3135 57.858 13.3135 58.5C13.3135 59.142 13.5685 59.7577 14.0225 60.2117C14.4765 60.6657 15.0923 60.9207 15.7344 60.9207H21.3823C22.0243 60.9207 22.6401 60.6657 23.0941 60.2117C23.5481 59.7577 23.8031 59.142 23.8031 58.5C23.8031 57.858 23.5481 57.2423 23.0941 56.7883C22.6401 56.3343 22.0243 56.0793 21.3823 56.0793Z" fill="#0088D6"/>
<path d="M29.9697 26.9217C29.5104 26.4716 28.892 26.2209 28.2489 26.2242C27.6058 26.2274 26.99 26.4843 26.5352 26.9391C26.0805 27.3938 25.8236 28.0096 25.8203 28.6527C25.8171 29.2958 26.0678 29.9142 26.5179 30.3735L30.5468 34.4024C31.0061 34.8525 31.6245 35.1032 32.2676 35.1C32.9107 35.0967 33.5265 34.8398 33.9812 34.3851C34.436 33.9303 34.6929 33.3145 34.6961 32.6714C34.6994 32.0283 34.4487 31.4099 33.9986 30.9506L29.9697 26.9217Z" fill="#0088D6"/>
</svg>
