<svg width="90" height="90" viewBox="0 0 90 90" fill="none" xmlns="http://www.w3.org/2000/svg">
<path d="M45.0001 0C36.0999 -1.3912e-05 27.3996 2.63918 19.9994 7.58383C12.5992 12.5285 6.83141 19.5565 3.42546 27.7792C0.0195072 36.0019 -0.871653 45.0499 0.864674 53.779C2.601 62.5082 6.88683 70.5264 13.1802 76.8198C19.4735 83.1131 27.4918 87.399 36.2209 89.1353C44.9501 90.8716 53.9981 89.9805 62.2207 86.5746C70.4434 83.1686 77.4715 77.4009 82.4161 70.0006C87.3608 62.6004 90 53.9001 90 45C89.9863 33.0695 85.2408 21.6315 76.8047 13.1954C68.3685 4.75924 56.9306 0.0137577 45.0001 0V0ZM45.0001 86.483C36.7955 86.483 28.7752 84.05 21.9534 79.4918C15.1315 74.9336 9.81452 68.4549 6.67476 60.8749C3.535 53.2949 2.71349 44.954 4.31411 36.9071C5.91474 28.8602 9.8656 21.4686 15.6671 15.6671C21.4686 9.86562 28.8601 5.91474 36.9071 4.31411C44.954 2.71347 53.2948 3.53497 60.8748 6.67472C68.4549 9.81446 74.9336 15.1314 79.4918 21.9533C84.05 28.7751 86.483 36.7954 86.483 45C86.4707 55.9982 82.0963 66.5424 74.3194 74.3193C66.5425 82.0962 55.9983 86.4707 45.0001 86.483V86.483Z" fill="#0D9CEE"/>
<path d="M56.0158 48.0831H45.6236V32.1309C45.6236 31.7578 45.4764 31.4 45.2142 31.1361C44.952 30.8723 44.5964 30.7241 44.2256 30.7241C43.8549 30.7241 43.4993 30.8723 43.2371 31.1361C42.9749 31.4 42.8276 31.7578 42.8276 32.1309V49.4898C42.8275 49.6746 42.8636 49.8575 42.9338 50.0283C43.0041 50.199 43.107 50.3541 43.2369 50.4847C43.3667 50.6154 43.5209 50.719 43.6905 50.7897C43.8602 50.8603 44.042 50.8966 44.2256 50.8965H56.0158C56.3866 50.8965 56.7422 50.7483 57.0044 50.4845C57.2666 50.2207 57.4138 49.8629 57.4138 49.4898C57.4138 49.1167 57.2666 48.7589 57.0044 48.4951C56.7422 48.2313 56.3866 48.0831 56.0158 48.0831H56.0158Z" fill="#0D9CEE"/>
<path d="M44.6897 18.6207C44.9343 18.6208 45.1765 18.5727 45.4025 18.4792C45.6284 18.3857 45.8338 18.2486 46.0067 18.0757C46.1796 17.9028 46.3168 17.6975 46.4103 17.4715C46.5038 17.2456 46.5519 17.0034 46.5518 16.7589V12.4135C46.5518 11.9197 46.3556 11.4462 46.0064 11.097C45.6572 10.7478 45.1836 10.5517 44.6897 10.5517C44.1959 10.5517 43.7222 10.7478 43.373 11.097C43.0238 11.4462 42.8276 11.9197 42.8276 12.4135V16.7589C42.8275 17.0034 42.8756 17.2456 42.9691 17.4715C43.0626 17.6975 43.1998 17.9028 43.3727 18.0757C43.5456 18.2486 43.751 18.3857 43.977 18.4792C44.2029 18.5727 44.4451 18.6208 44.6897 18.6207Z" fill="#0D9CEE"/>
<path d="M66.6474 20.7069L63.5614 23.7939C63.3848 23.967 63.2442 24.1733 63.1479 24.4009C63.0515 24.6286 63.0013 24.8731 63 25.1203C62.9988 25.3675 63.0466 25.6125 63.1406 25.8411C63.2346 26.0697 63.3731 26.2774 63.5479 26.4522C63.7228 26.627 63.9306 26.7654 64.1592 26.8594C64.3879 26.9535 64.633 27.0012 64.8802 27C65.1275 26.9987 65.3721 26.9485 65.5998 26.8522C65.8275 26.7558 66.0339 26.6153 66.2069 26.4388L69.2929 23.3518C69.6379 22.9998 69.8301 22.526 69.8276 22.0333C69.8251 21.5405 69.6282 21.0686 69.2796 20.7202C68.9311 20.3718 68.4591 20.1749 67.9663 20.1724C67.4734 20.17 66.9994 20.362 66.6474 20.7069H66.6474Z" fill="#0D9CEE"/>
<path d="M77.5861 43.1379H73.2416C72.7477 43.1379 72.2741 43.3341 71.9248 43.6833C71.5756 44.0325 71.3794 44.5062 71.3794 45C71.3794 45.4939 71.5756 45.9675 71.9248 46.3167C72.2741 46.6659 72.7477 46.8621 73.2416 46.8621H77.5861C78.08 46.8621 78.5537 46.6659 78.9029 46.3167C79.2522 45.9675 79.4484 45.4939 79.4484 45C79.4484 44.5062 79.2522 44.0325 78.9029 43.6833C78.5537 43.3341 78.08 43.1379 77.5861 43.1379Z" fill="#0D9CEE"/>
<path d="M66.1927 63.847C65.8393 63.5007 65.3635 63.3079 64.8687 63.3104C64.3738 63.3129 63.9 63.5105 63.5501 63.8603C63.2002 64.2101 63.0025 64.6838 63 65.1785C62.9975 65.6732 63.1904 66.1489 63.5367 66.5022L66.6349 69.6013C66.9883 69.9476 67.4641 70.1404 67.9589 70.1379C68.4537 70.1354 68.9276 69.9378 69.2775 69.588C69.6274 69.2382 69.8251 68.7645 69.8276 68.2698C69.8301 67.7751 69.6372 67.2994 69.2908 66.9461L66.1927 63.847Z" fill="#0D9CEE"/>
<path d="M44.6897 71.6896C44.4451 71.6895 44.2029 71.7376 43.977 71.8311C43.751 71.9246 43.5456 72.0617 43.3727 72.2346C43.1998 72.4075 43.0626 72.6128 42.9691 72.8388C42.8756 73.0647 42.8275 73.3069 42.8276 73.5514V77.8968C42.8276 78.3906 43.0238 78.8641 43.373 79.2133C43.7222 79.5625 44.1959 79.7586 44.6897 79.7586C45.1836 79.7586 45.6572 79.5625 46.0064 79.2133C46.3556 78.8641 46.5518 78.3906 46.5518 77.8968V73.5514C46.5519 73.3069 46.5038 73.0647 46.4103 72.8388C46.3168 72.6128 46.1796 72.4075 46.0067 72.2346C45.8338 72.0617 45.6284 71.9246 45.4025 71.8311C45.1765 71.7376 44.9343 71.6895 44.6897 71.6896V71.6896Z" fill="#0D9CEE"/>
<path d="M23.51 63.8449L20.423 66.9319C20.2465 67.1049 20.106 67.3112 20.0097 67.5389C19.9133 67.7665 19.8631 68.011 19.8618 68.2582C19.8606 68.5054 19.9084 68.7504 20.0024 68.979C20.0964 69.2076 20.2348 69.4154 20.4096 69.5902C20.5844 69.765 20.7921 69.9034 21.0207 69.9974C21.2494 70.0914 21.4944 70.1392 21.7416 70.1379C21.9887 70.1367 22.2332 70.0864 22.4609 69.9901C22.6886 69.8938 22.8949 69.7533 23.0679 69.5767L26.1549 66.4897C26.4998 66.1378 26.6919 65.664 26.6894 65.1712C26.6869 64.6785 26.49 64.2066 26.1416 63.8582C25.7932 63.5097 25.3213 63.3129 24.8286 63.3104C24.3358 63.3079 23.862 63.5 23.51 63.8449V63.8449Z" fill="#0D9CEE"/>
<path d="M16.448 43.1379H12.1034C11.6095 43.1379 11.1359 43.3341 10.7866 43.6833C10.4374 44.0325 10.2412 44.5062 10.2412 45C10.2412 45.4939 10.4374 45.9675 10.7866 46.3167C11.1359 46.6659 11.6095 46.8621 12.1034 46.8621H16.448C16.9419 46.8621 17.4155 46.6659 17.7647 46.3167C18.114 45.9675 18.3102 45.4939 18.3102 45C18.3102 44.5062 18.114 44.0325 17.7647 43.6833C17.4155 43.3341 16.9419 43.1379 16.448 43.1379Z" fill="#0D9CEE"/>
<path d="M23.0537 20.709C22.7004 20.3628 22.2247 20.1699 21.73 20.1724C21.2353 20.1749 20.7616 20.3726 20.4118 20.7224C20.062 21.0722 19.8643 21.5459 19.8618 22.0406C19.8593 22.5353 20.0522 23.0109 20.3984 23.3643L23.4975 26.4634C23.8509 26.8097 24.3266 27.0025 24.8212 27C25.3159 26.9975 25.7897 26.7999 26.1395 26.4501C26.4893 26.1003 26.6869 25.6266 26.6894 25.1319C26.6919 24.6372 26.499 24.1615 26.1528 23.8082L23.0537 20.709Z" fill="#0D9CEE"/>
</svg>
