<svg width="31" height="32" viewBox="0 0 31 32" fill="none" xmlns="http://www.w3.org/2000/svg">
<path fill-rule="evenodd" clip-rule="evenodd" d="M16.5255 14.2681V14.2222C16.5163 14.2376 16.5036 14.2529 16.4956 14.2681H16.5255Z" fill="white"/>
<path fill-rule="evenodd" clip-rule="evenodd" d="M0.27832 0V31.7704H30.2783V0H0.27832ZM9.60944 26.394H5.1585V12.2128H9.60944V26.394ZM7.38397 10.2773H7.35456C5.86149 10.2773 4.89371 9.18792 4.89371 7.82633C4.89371 6.43486 5.88977 5.37638 7.41311 5.37638C8.93678 5.37638 9.87311 6.43486 9.90225 7.82633C9.90225 9.18792 8.93678 10.2773 7.38397 10.2773ZM25.6629 26.394H21.2108V18.807C21.2108 16.9014 20.5676 15.6006 18.9562 15.6006C17.7256 15.6006 16.9943 16.4765 16.6722 17.3248C16.5551 17.6279 16.5245 18.0491 16.5245 18.4741V26.3941H12.0715C12.0715 26.3941 12.1312 13.5433 12.0715 12.2129H16.5245V14.2224C17.1161 13.2583 18.1719 11.88 20.537 11.88C23.4669 11.88 25.6629 13.9063 25.6629 18.2618V26.394Z" fill="white"/>
</svg>
